# xmcd
#
# Track frame offsets:
#	150
#	16002
#	35304
#	52578
#	73588
#	91494
#	109606
#	130524
#	150244
#	172390
#	188918
#	205197
#	226944
#	241368
#	258295
#	269889
#	283001
#	301154
#	316430
#
# Disc length: 4461 seconds
#
# Revision: 1
# Processed by: cddbd v1.5.1PL0 Copyright (c) Steve Scherf et al.
# Submitted via: EasyCDDAExtractor 7.0.4.1
#
DISCID=fa116b13
DTITLE=Jim Hatch - Best of Friends
DYEAR=2004
DGENRE=Country
TTITLE0=I Cross My Heart
TTITLE1=Mamas Don't Let Your Babies Grow Up To Be Cowboys
TTITLE2=Girls, Women and Ladies
TTITLE3=The Strawberry Roan
TTITLE4=Old Paint
TTITLE5=The Sierry Petes
TTITLE6=The Red River Valley
TTITLE7=The Streets Of Laredo
TTITLE8=Night Rider's Lament
TTITLE9=Keeper Of The Stars
TTITLE10=Waltz Across Texas
TTITLE11=El Paso
TTITLE12=City Of New Orleans
TTITLE13=Wabash Cannonball
TTITLE14=Movin' On
TTITLE15=Thunder Road
TTITLE16=Riders In The Sky
TTITLE17=Blue Canadian Rockies
TTITLE18=Home On The Range
EXTD=
EXTT0=
EXTT1=
EXTT2=
EXTT3=
EXTT4=
EXTT5=
EXTT6=
EXTT7=
EXTT8=
EXTT9=
EXTT10=
EXTT11=
EXTT12=
EXTT13=
EXTT14=
EXTT15=
EXTT16=
EXTT17=
EXTT18=
PLAYORDER=
